# xmcd
#
# Track frame offsets: 
#        150
#        21058
#        47011
#        61551
#        99815
#        119472
#        148459
#        174697
#        189422
#        197562
#        221179
#        243682
#        272186
#        290067
#        313953
#
# Disc length: 4671 seconds
#
# Revision: 0
# Processed by: cddbd v1.5.2PL0 Copyright (c) Steve Scherf et al.
# Submitted via: ExactAudioCopy v1.0b1
#
DISCID=ec123d0f
DTITLE=Kenny Wayne Shepherd - 10 Days Out: Blues From The Backroads
DYEAR=2007
DGENRE=Blues
TTITLE0=Prison Blues (With Cootie Stark and Neal 'Big Daddy' Pattman)
TTITLE1=Potato Patch (With Jerry 'Boogie' McCain) 
TTITLE2=Honky Tonk (With Buddy Flett) 
TTITLE3=The Thrill Is Gone (With B.B. King)
TTITLE4=Tina Marie (With Bryan Lee) 
TTITLE5=Born In Louisiana (With Clarence 'Gatemouth' Brown) 
TTITLE6=Chapel Hill Boogie (With John Dee Holeman) 
TTITLE7=Tears Come Rollin' Down (With Henry Townsend) 
TTITLE8=Knoxville Rag (With Etta Baker)
TTITLE9=Big Daddy Boogie (With Big Daddy Pattman)
TTITLE10=U-Haul (With Cootie Stark)
TTITLE11=Red Rooster (With Henry Gray and Howlin' Wolf Band)
TTITLE12=Sittin' On Top Of The World (With Hubert Sumlin and Howlin' Wol
TTITLE12=f Band)
TTITLE13=Spoonful (With George 'Wild Child' Butler and Howlin' Wolf Band
TTITLE13=)
TTITLE14=Grindin' Man (With Pinetop Perkins and Muddy Waters Band)
EXTD=
EXTT0=
EXTT1=
EXTT2=
EXTT3=
EXTT4=
EXTT5=
EXTT6=
EXTT7=
EXTT8=
EXTT9=
EXTT10=
EXTT11=
EXTT12=
EXTT13=
EXTT14=
PLAYORDER=
